<svg width="20" height="20" viewBox="0 0 20 20" fill="none" xmlns="http://www.w3.org/2000/svg">
<path d="M10 1.66667C14.595 1.66667 18.3333 5.405 18.3333 10C18.3333 14.595 14.595 18.3333 10 18.3333C5.405 18.3333 1.66667 14.595 1.66667 10C1.66667 5.405 5.405 1.66667 10 1.66667ZM10 0C4.4775 0 0 4.4775 0 10C0 15.5225 4.4775 20 10 20C15.5225 20 20 15.5225 20 10C20 4.4775 15.5225 0 10 0ZM10.0175 14.8533C6.76167 14.8533 5 12.8217 5 10.1983C5 7.39583 6.98417 5.14667 10.5317 5.14667C13.1208 5.14667 15 6.82917 15 9.1475C15 12.7775 10.6958 13.7358 10.9117 11.665C10.6167 12.1275 10.1392 12.6458 9.22333 12.6458C8.17583 12.6458 7.52333 11.8792 7.52333 10.6433C7.52333 8.79167 8.74083 7.22667 10.1817 7.22667C10.8725 7.22667 11.3475 7.59167 11.5467 8.15167L11.74 7.47167H12.7142C12.6125 7.81833 11.7467 11.025 11.7467 11.025C11.4775 12.1358 12.3092 12.155 13.0483 11.565C14.4358 10.49 14.5067 7.67833 12.6325 6.50583C10.6233 5.30167 6.05167 6.04667 6.05167 10.1283C6.05167 12.4667 7.69833 14.0375 10.1467 14.0375C11.5792 14.0375 12.4558 13.65 13.1867 13.2258L13.6767 13.9333C12.9633 14.335 11.8175 14.8533 10.0175 14.8533ZM9.04083 8.8925C8.74333 9.45083 8.55083 10.1742 8.55083 10.7358C8.55083 12.24 10.0183 12.2492 10.7392 10.8358C11.0358 10.255 11.2275 9.51417 11.2275 8.94833C11.2275 7.73333 9.77083 7.5175 9.04083 8.8925Z" fill="#CACACA"/>
</svg>
