<svg width="20" height="20" viewBox="0 0 20 20" fill="none" xmlns="http://www.w3.org/2000/svg">
<path d="M10 1.66667C14.595 1.66667 18.3333 5.405 18.3333 10C18.3333 14.595 14.595 18.3333 10 18.3333C5.405 18.3333 1.66667 14.595 1.66667 10C1.66667 5.405 5.405 1.66667 10 1.66667ZM10 0C4.4775 0 0 4.4775 0 10C0 15.5225 4.4775 20 10 20C15.5225 20 20 15.5225 20 10C20 4.4775 15.5225 0 10 0ZM10 5C7.23917 5 5 7.23833 5 10C5 12.2092 6.4325 14.0833 8.42 14.7442C8.67 14.7908 8.75 14.6358 8.75 14.5033V13.5725C7.35917 13.875 7.06917 12.9833 7.06917 12.9833C6.8425 12.4058 6.51417 12.2517 6.51417 12.2517C6.06083 11.9408 6.54833 11.9475 6.54833 11.9475C7.05083 11.9825 7.315 12.4633 7.315 12.4633C7.76083 13.2275 8.48417 13.0067 8.77 12.8792C8.815 12.5558 8.94417 12.3358 9.0875 12.2108C7.97667 12.0842 6.81 11.655 6.81 9.74C6.81 9.19417 7.005 8.74833 7.325 8.39833C7.27333 8.27083 7.10167 7.76167 7.37333 7.07333C7.37333 7.07333 7.79333 6.93917 8.74833 7.58583C9.1475 7.475 9.575 7.42 10 7.4175C10.425 7.41917 10.8525 7.475 11.2525 7.58583C12.2075 6.93917 12.6258 7.07333 12.6258 7.07333C12.8983 7.76167 12.7267 8.27083 12.6758 8.39667C12.9967 8.74667 13.19 9.1925 13.19 9.73833C13.19 11.6592 12.02 12.0817 10.9067 12.205C11.0867 12.36 11.25 12.6642 11.25 13.1308V14.5025C11.25 14.6358 11.33 14.7917 11.5833 14.7425C13.5692 14.0817 15 12.2083 15 10C15 7.23833 12.7608 5 10 5Z" fill="#CACACA"/>
</svg>
