<svg width="20" height="20" viewBox="0 0 20 20" fill="none" xmlns="http://www.w3.org/2000/svg">
<path d="M10 1.66667C14.595 1.66667 18.3333 5.405 18.3333 10C18.3333 14.595 14.595 18.3333 10 18.3333C5.405 18.3333 1.66667 14.595 1.66667 10C1.66667 5.405 5.405 1.66667 10 1.66667ZM10 0C4.4775 0 0 4.4775 0 10C0 15.5225 4.4775 20 10 20C15.5225 20 20 15.5225 20 10C20 4.4775 15.5225 0 10 0ZM10 5.90167C11.335 5.90167 11.4933 5.90667 12.0208 5.93083C13.3767 5.9925 14.0083 6.635 14.0708 7.98C14.0942 8.5075 14.0992 8.665 14.0992 10C14.0992 11.335 14.0942 11.4933 14.0708 12.02C14.0083 13.3642 13.3775 14.0083 12.0208 14.07C11.4933 14.0933 11.3358 14.0992 10 14.0992C8.665 14.0992 8.50667 14.0942 7.98 14.07C6.62167 14.0075 5.9925 13.3625 5.93 12.02C5.90667 11.4933 5.90083 11.335 5.90083 10C5.90083 8.665 5.90667 8.50667 5.93 7.98C5.99167 6.63417 6.62333 5.99167 7.98 5.93C8.50667 5.90583 8.665 5.90167 10 5.90167ZM10 5C8.64167 5 8.4725 5.00583 7.93833 5.03083C6.12167 5.11417 5.11333 6.12167 5.03 7.93833C5.00583 8.4725 5 8.6425 5 10C5 11.3583 5.00583 11.5283 5.03 12.0617C5.11333 13.8775 6.12167 14.8867 7.93833 14.97C8.4725 14.9942 8.64167 15 10 15C11.3583 15 11.5283 14.9942 12.0625 14.97C13.8758 14.8867 14.8883 13.8792 14.97 12.0617C14.9942 11.5283 15 11.3583 15 10C15 8.6425 14.9942 8.4725 14.97 7.93833C14.8883 6.12417 13.8792 5.11333 12.0625 5.03083C11.5283 5.00583 11.3583 5 10 5ZM10 7.4325C8.5825 7.4325 7.4325 8.58167 7.4325 10C7.4325 11.4183 8.5825 12.5675 10 12.5675C11.4175 12.5675 12.5675 11.4183 12.5675 10C12.5675 8.5825 11.4175 7.4325 10 7.4325ZM10 11.6667C9.07917 11.6667 8.33333 10.9208 8.33333 10C8.33333 9.08 9.07917 8.33333 10 8.33333C10.92 8.33333 11.6675 9.07917 11.6675 10C11.6675 10.9208 10.92 11.6667 10 11.6667ZM12.6683 6.73167C12.3375 6.73167 12.0683 7 12.0683 7.33167C12.0683 7.6625 12.3367 7.93167 12.6683 7.93167C13 7.93167 13.2692 7.66333 13.2692 7.33167C13.2692 7 13.0008 6.73167 12.6683 6.73167Z" fill="#CACACA"/>
</svg>
